<svg id="svg" version="1.1" xmlns="http://www.w3.org/2000/svg" xmlns:xlink="http://www.w3.org/1999/xlink" width="400" height="104.16666666666667" viewBox="0, 0, 400,104.16666666666667"><g id="svgg"><path id="path0" d="M235.537 48.641 C 235.570 64.355,235.637 71.018,235.764 71.183 C 235.864 71.311,236.078 71.923,236.241 72.542 C 236.404 73.160,236.598 73.667,236.672 73.667 C 236.747 73.667,236.888 73.910,236.987 74.208 C 237.154 74.714,238.557 76.333,238.829 76.333 C 238.896 76.333,239.150 76.517,239.393 76.743 C 239.636 76.968,240.097 77.201,240.417 77.261 C 240.738 77.321,241.000 77.424,241.000 77.490 C 241.000 78.121,248.416 78.122,248.639 77.491 C 248.669 77.404,248.857 77.332,249.056 77.331 C 249.813 77.325,249.836 77.213,249.550 74.911 C 249.402 73.723,249.228 72.712,249.163 72.667 C 249.098 72.621,248.994 72.058,248.932 71.417 C 248.722 69.241,248.803 69.361,247.607 69.457 C 246.528 69.543,246.541 69.549,245.833 68.718 C 245.614 68.461,245.578 65.802,245.539 47.379 L 245.495 26.333 240.493 26.333 L 235.491 26.333 235.537 48.641 M245.066 26.930 C 245.121 27.075,245.167 36.415,245.167 47.686 C 245.167 64.604,245.206 68.271,245.394 68.714 C 245.756 69.570,246.256 69.906,247.308 69.999 L 248.250 70.083 248.693 72.667 C 249.470 77.194,249.558 76.938,247.064 77.415 C 240.721 78.629,236.660 75.703,236.000 69.445 C 235.819 67.729,235.766 26.956,235.944 26.778 C 236.213 26.509,244.960 26.656,245.066 26.930 M105.167 53.500 L 105.167 77.167 114.286 77.167 C 122.724 77.167,127.949 76.980,128.167 76.671 C 128.212 76.605,128.944 76.418,129.792 76.255 C 130.640 76.092,131.333 75.903,131.333 75.834 C 131.333 75.766,131.677 75.614,132.097 75.496 C 132.517 75.379,132.948 75.199,133.055 75.097 C 133.162 74.994,133.569 74.769,133.958 74.597 C 134.348 74.424,134.667 74.219,134.667 74.141 C 134.667 74.064,134.753 74.000,134.858 74.000 C 135.372 74.000,138.184 71.257,138.702 70.250 C 138.890 69.883,139.101 69.546,139.169 69.500 C 139.238 69.454,139.420 69.044,139.574 68.587 C 139.729 68.131,139.914 67.681,139.986 67.587 C 140.628 66.751,140.638 59.177,139.998 58.667 C 139.941 58.621,139.761 58.246,139.598 57.834 C 139.436 57.422,139.254 57.047,139.193 57.000 C 139.133 56.954,138.940 56.660,138.765 56.346 C 138.158 55.258,136.945 53.982,136.208 53.657 C 135.910 53.526,135.667 53.368,135.667 53.306 C 135.667 53.145,133.764 52.214,133.168 52.084 C 132.604 51.960,132.694 51.805,133.635 51.278 C 134.288 50.913,135.667 49.510,135.667 49.211 C 135.667 49.095,135.740 49.000,135.829 49.000 C 135.918 49.000,136.116 48.756,136.269 48.458 C 136.422 48.160,136.599 47.879,136.664 47.833 C 136.728 47.788,136.915 47.394,137.080 46.958 C 137.244 46.523,137.433 46.167,137.500 46.167 C 138.262 46.167,138.282 37.839,137.521 37.341 C 137.444 37.291,137.293 36.977,137.184 36.643 C 137.075 36.309,136.802 35.821,136.576 35.559 C 136.351 35.298,136.167 35.016,136.167 34.933 C 136.166 34.167,132.443 31.756,130.333 31.155 C 129.921 31.038,129.504 30.883,129.408 30.811 C 129.199 30.656,125.600 30.167,124.668 30.167 C 124.311 30.167,123.973 30.092,123.917 30.000 C 123.850 29.892,120.526 29.833,114.490 29.833 L 105.167 29.833 105.167 53.500 M124.872 30.513 C 130.347 31.327,132.795 32.279,134.939 34.428 C 139.658 39.159,138.218 48.435,132.300 51.434 C 131.321 51.929,131.322 51.909,132.292 52.255 C 138.087 54.323,140.734 58.685,140.007 64.972 C 139.363 70.541,135.372 74.418,128.613 76.041 L 126.417 76.568 116.042 76.628 L 105.667 76.687 105.667 53.510 L 105.667 30.333 114.664 30.333 C 120.249 30.333,124.120 30.402,124.872 30.513 M187.111 32.625 C 187.056 33.060,186.962 34.092,186.901 34.917 C 186.840 35.742,186.734 36.492,186.667 36.583 C 186.599 36.675,186.494 37.425,186.434 38.250 C 186.193 41.562,186.565 41.237,182.792 41.431 L 180.667 41.540 180.667 45.520 L 180.667 49.500 183.167 49.500 L 185.667 49.500 185.667 58.419 C 185.667 63.409,185.733 67.465,185.817 67.627 C 185.900 67.786,186.096 68.648,186.252 69.542 C 186.408 70.435,186.597 71.167,186.672 71.167 C 186.748 71.167,186.930 71.579,187.076 72.083 C 187.223 72.587,187.412 73.000,187.497 73.000 C 187.582 73.000,187.781 73.275,187.941 73.611 C 188.266 74.297,189.738 75.768,190.533 76.203 C 190.821 76.360,191.100 76.551,191.153 76.627 C 191.262 76.783,192.911 77.333,193.269 77.333 C 193.396 77.333,193.500 77.397,193.500 77.476 C 193.500 77.721,195.734 78.000,197.699 78.000 C 199.614 78.000,202.333 77.709,202.333 77.503 C 202.333 77.441,203.046 77.250,203.917 77.079 C 205.399 76.788,205.500 76.742,205.500 76.361 C 205.500 75.767,205.122 73.764,204.991 73.667 C 204.929 73.621,204.745 72.815,204.581 71.875 C 204.417 70.935,204.223 70.167,204.151 70.167 C 204.079 70.167,203.997 69.885,203.968 69.542 C 203.918 68.934,203.325 68.684,203.007 69.138 C 202.499 69.863,198.512 69.804,197.695 69.058 C 197.509 68.889,197.258 68.660,197.137 68.550 C 196.050 67.561,196.006 67.135,196.003 57.708 L 196.000 49.500 200.250 49.500 L 204.500 49.500 204.500 45.333 L 204.500 41.167 200.250 41.167 L 196.000 41.167 196.000 36.500 L 196.000 31.833 191.605 31.833 L 187.210 31.833 187.111 32.625 M211.939 32.607 C 211.881 33.032,211.833 33.669,211.833 34.023 C 211.833 34.377,211.771 34.667,211.694 34.667 C 211.618 34.667,211.464 35.848,211.351 37.292 C 211.005 41.733,211.455 41.234,207.625 41.431 L 205.500 41.540 205.500 45.520 L 205.500 49.500 207.990 49.500 L 210.480 49.500 210.532 59.006 C 210.567 65.453,210.640 68.551,210.760 68.631 C 210.857 68.697,211.030 69.268,211.144 69.901 C 211.593 72.394,213.725 75.574,215.463 76.344 C 215.758 76.474,216.000 76.633,216.000 76.696 C 216.000 76.758,216.431 76.935,216.958 77.087 C 217.485 77.240,217.992 77.425,218.083 77.498 C 218.844 78.108,227.167 78.108,227.167 77.498 C 227.167 77.439,227.888 77.248,228.770 77.075 L 230.373 76.760 230.270 75.772 C 230.213 75.229,230.101 74.701,230.021 74.600 C 229.940 74.499,229.741 73.629,229.578 72.667 C 229.415 71.704,229.223 70.840,229.152 70.746 C 229.080 70.652,228.969 70.178,228.904 69.692 C 228.791 68.835,228.250 68.559,227.835 69.147 C 227.536 69.569,224.437 69.817,223.350 69.505 C 222.296 69.202,221.006 67.484,221.001 66.375 C 221.000 66.260,220.925 66.167,220.833 66.167 C 220.724 66.167,220.667 63.278,220.667 57.833 L 220.667 49.500 225.000 49.500 L 229.333 49.500 229.333 45.333 L 229.333 41.167 225.000 41.167 L 220.667 41.167 220.667 36.500 L 220.667 31.833 216.356 31.833 L 212.045 31.833 211.939 32.607 M195.178 32.339 C 195.484 32.503,195.500 32.734,195.500 37.089 L 195.500 41.667 199.750 41.667 L 204.000 41.667 204.000 45.333 L 204.000 49.000 199.750 49.000 L 195.500 49.000 195.500 57.278 C 195.500 67.687,195.609 68.352,197.521 69.617 C 198.423 70.214,201.365 70.309,202.650 69.783 C 203.698 69.354,203.684 69.319,204.772 74.802 C 205.095 76.428,205.172 76.322,203.250 76.880 C 197.366 78.588,191.254 77.313,188.645 73.833 C 186.346 70.767,186.111 69.345,186.037 58.042 L 185.977 49.000 183.572 49.000 L 181.167 49.000 181.167 45.593 C 181.167 43.719,181.233 42.146,181.313 42.096 C 181.394 42.046,182.575 41.916,183.938 41.807 C 186.798 41.579,186.603 41.721,186.748 39.765 C 186.809 38.932,187.004 37.202,187.180 35.921 C 187.356 34.640,187.500 33.344,187.500 33.041 C 187.500 32.625,187.592 32.452,187.875 32.339 C 188.406 32.125,194.778 32.126,195.178 32.339 M219.903 32.268 C 220.134 32.357,220.167 32.909,220.167 36.754 C 220.167 39.166,220.212 41.258,220.268 41.403 C 220.356 41.634,220.896 41.667,224.601 41.667 L 228.833 41.667 228.833 45.333 L 228.833 49.000 224.601 49.000 C 220.896 49.000,220.356 49.033,220.268 49.264 C 220.032 49.878,220.162 64.719,220.416 66.162 C 221.011 69.546,223.266 70.865,226.839 69.919 C 228.454 69.491,228.363 69.450,228.683 70.750 C 229.835 75.422,229.980 76.298,229.625 76.409 C 220.038 79.391,213.252 76.830,211.496 69.569 C 210.918 67.176,210.839 65.694,210.836 57.125 L 210.833 49.000 208.417 49.000 L 206.000 49.000 206.000 45.593 C 206.000 43.719,206.068 42.144,206.151 42.093 C 206.234 42.042,207.428 41.911,208.806 41.803 L 211.310 41.606 211.488 40.581 C 211.586 40.017,211.666 39.337,211.665 39.070 C 211.658 37.589,212.383 32.570,212.632 32.375 C 212.910 32.156,219.365 32.061,219.903 32.268 M115.125 37.592 C 115.056 37.664,115.000 40.306,115.000 43.463 L 115.000 49.204 119.125 49.122 C 126.299 48.979,128.600 47.516,128.562 43.122 C 128.537 40.300,127.298 38.745,124.454 37.969 C 123.180 37.622,115.399 37.307,115.125 37.592 M123.917 38.283 C 124.100 38.389,124.651 38.598,125.141 38.747 C 126.052 39.023,126.262 39.147,126.891 39.776 C 127.545 40.430,127.665 40.645,127.917 41.612 C 128.224 42.792,128.226 43.278,127.925 44.697 C 127.678 45.860,127.393 46.300,126.216 47.326 C 125.885 47.614,124.391 48.167,123.941 48.167 C 123.805 48.167,123.663 48.260,123.625 48.375 C 123.573 48.532,122.544 48.597,119.445 48.640 L 115.333 48.697 115.333 43.332 L 115.333 37.966 119.458 38.029 C 122.165 38.069,123.698 38.157,123.917 38.283 M158.750 40.544 C 158.200 40.637,157.712 40.766,157.667 40.831 C 157.621 40.896,157.040 41.081,156.375 41.243 C 155.710 41.404,155.167 41.588,155.167 41.652 C 155.167 41.715,154.792 41.902,154.333 42.067 C 153.875 42.232,153.500 42.417,153.500 42.479 C 153.500 42.540,153.221 42.739,152.879 42.920 C 152.087 43.341,151.946 43.461,150.253 45.167 C 148.430 47.002,148.225 47.237,147.901 47.863 C 147.753 48.150,147.496 48.530,147.331 48.707 C 147.167 48.884,146.984 49.285,146.925 49.598 C 146.866 49.911,146.750 50.167,146.668 50.167 C 146.585 50.167,146.384 50.598,146.221 51.125 C 146.059 51.652,145.877 52.121,145.818 52.167 C 145.759 52.212,145.582 52.962,145.426 53.833 C 145.269 54.704,145.072 55.547,144.987 55.706 C 144.775 56.105,144.787 62.452,145.000 62.583 C 145.092 62.640,145.167 62.873,145.167 63.100 C 145.167 63.668,145.670 66.063,145.811 66.166 C 145.874 66.212,146.059 66.681,146.221 67.208 C 146.384 67.735,146.580 68.167,146.657 68.167 C 146.733 68.167,146.843 68.416,146.900 68.721 C 146.957 69.026,147.145 69.426,147.318 69.611 C 147.490 69.797,147.753 70.183,147.901 70.471 C 148.225 71.096,148.430 71.331,150.253 73.167 C 151.946 74.872,152.087 74.993,152.879 75.413 C 153.221 75.594,153.500 75.793,153.500 75.854 C 153.500 75.916,153.875 76.101,154.333 76.266 C 154.792 76.431,155.167 76.618,155.167 76.682 C 155.167 76.745,155.710 76.929,156.375 77.091 C 157.040 77.252,157.621 77.435,157.667 77.497 C 158.174 78.188,165.295 78.123,166.917 77.413 C 167.192 77.293,167.702 77.142,168.050 77.077 C 168.398 77.013,168.773 76.870,168.883 76.760 C 168.993 76.649,169.440 76.423,169.875 76.257 C 170.310 76.091,170.667 75.899,170.667 75.830 C 170.667 75.762,170.798 75.661,170.958 75.608 C 171.373 75.468,171.894 75.119,172.050 74.875 C 172.123 74.760,172.263 74.667,172.360 74.667 C 172.457 74.667,173.245 73.935,174.111 73.042 C 176.090 70.999,176.068 71.025,176.348 70.375 C 176.476 70.077,176.632 69.833,176.694 69.833 C 176.862 69.833,177.747 68.000,178.011 67.108 C 178.136 66.682,178.290 66.333,178.352 66.333 C 178.414 66.333,178.592 65.602,178.748 64.708 C 178.904 63.815,179.111 62.936,179.206 62.756 C 179.455 62.290,179.441 56.041,179.190 55.790 C 179.086 55.686,179.000 55.429,179.000 55.220 C 179.000 54.703,178.474 52.104,178.349 52.000 C 178.294 51.954,178.145 51.617,178.020 51.250 C 177.670 50.231,176.842 48.500,176.704 48.500 C 176.637 48.500,176.476 48.256,176.348 47.958 C 176.068 47.309,176.090 47.334,174.111 45.292 C 173.245 44.398,172.457 43.667,172.360 43.667 C 172.263 43.667,172.123 43.573,172.050 43.458 C 171.894 43.214,171.373 42.865,170.958 42.726 C 170.798 42.672,170.667 42.572,170.667 42.503 C 170.667 42.435,170.310 42.243,169.875 42.076 C 169.440 41.910,168.993 41.684,168.883 41.574 C 168.773 41.464,168.398 41.321,168.050 41.256 C 167.702 41.192,167.192 41.041,166.917 40.920 C 165.652 40.367,161.060 40.156,158.750 40.544 M266.542 40.538 C 265.877 40.626,265.333 40.758,265.333 40.831 C 265.333 40.903,264.846 41.095,264.250 41.256 C 263.654 41.418,263.167 41.603,263.167 41.669 C 263.167 41.734,262.813 41.923,262.380 42.089 C 261.947 42.254,261.446 42.526,261.267 42.693 C 261.088 42.860,260.811 43.037,260.653 43.088 C 260.494 43.138,260.322 43.289,260.271 43.423 C 260.219 43.557,260.081 43.667,259.964 43.667 C 259.846 43.667,259.165 44.286,258.449 45.042 C 256.551 47.048,256.333 47.297,256.333 47.458 C 256.333 47.538,256.196 47.751,256.029 47.931 C 255.861 48.111,255.584 48.575,255.413 48.962 C 255.242 49.350,255.054 49.667,254.995 49.667 C 254.936 49.667,254.747 50.079,254.576 50.583 C 254.405 51.087,254.214 51.500,254.153 51.500 C 254.092 51.500,253.907 52.156,253.741 52.958 C 253.575 53.760,253.359 54.470,253.261 54.536 C 253.142 54.615,253.083 56.180,253.083 59.250 C 253.083 62.320,253.142 63.885,253.261 63.964 C 253.359 64.030,253.575 64.740,253.741 65.542 C 253.907 66.344,254.092 67.000,254.152 67.000 C 254.211 67.000,254.361 67.342,254.485 67.759 C 254.608 68.177,254.793 68.609,254.896 68.720 C 254.999 68.831,255.233 69.221,255.415 69.586 C 255.597 69.951,255.841 70.310,255.957 70.383 C 256.072 70.457,256.167 70.625,256.167 70.757 C 256.167 71.016,259.659 74.667,259.907 74.667 C 259.989 74.667,260.174 74.781,260.319 74.921 C 261.174 75.743,263.448 76.860,264.917 77.179 C 265.467 77.298,265.954 77.448,266.000 77.511 C 266.442 78.119,275.228 78.111,275.667 77.503 C 275.712 77.439,276.406 77.251,277.208 77.084 C 278.010 76.918,278.667 76.724,278.667 76.654 C 278.667 76.584,279.060 76.397,279.542 76.239 C 280.023 76.080,280.454 75.906,280.500 75.850 C 280.546 75.795,280.883 75.601,281.250 75.418 C 281.617 75.236,281.954 75.040,282.000 74.983 C 282.046 74.926,282.327 74.755,282.625 74.602 C 282.923 74.450,283.167 74.252,283.167 74.162 C 283.167 74.073,283.287 74.000,283.435 74.000 C 283.711 74.000,283.638 73.195,283.345 73.002 C 283.274 72.955,283.076 72.617,282.906 72.250 C 282.735 71.883,282.499 71.484,282.381 71.363 C 282.263 71.242,282.167 71.036,282.167 70.905 C 282.167 70.774,282.027 70.527,281.856 70.356 C 281.685 70.185,281.412 69.697,281.250 69.272 C 281.087 68.848,280.904 68.500,280.842 68.500 C 280.780 68.500,280.626 68.237,280.500 67.917 C 280.294 67.393,279.667 67.062,279.667 67.477 C 279.667 67.557,279.329 67.750,278.917 67.908 C 278.504 68.065,278.167 68.254,278.167 68.328 C 278.167 68.401,277.773 68.590,277.292 68.747 C 276.810 68.903,276.332 69.102,276.228 69.187 C 275.267 69.975,268.546 69.962,268.000 69.170 C 267.954 69.104,267.619 68.909,267.256 68.738 C 266.418 68.345,265.941 67.944,264.994 66.837 C 264.721 66.518,264.450 66.106,264.392 65.921 C 264.333 65.736,264.196 65.509,264.087 65.417 C 263.979 65.325,263.787 64.912,263.660 64.500 C 263.534 64.087,263.380 63.712,263.319 63.667 C 263.258 63.621,263.154 63.265,263.089 62.875 L 262.971 62.167 273.717 62.167 L 284.463 62.167 284.672 60.458 C 284.973 58.000,284.626 51.826,284.168 51.500 C 284.103 51.454,283.919 50.873,283.757 50.208 C 283.596 49.544,283.403 49.000,283.329 49.000 C 283.254 49.000,283.064 48.606,282.906 48.125 C 282.748 47.644,282.517 47.190,282.393 47.117 C 282.268 47.043,282.167 46.893,282.166 46.783 C 282.166 46.673,281.979 46.365,281.750 46.099 C 281.521 45.833,281.333 45.564,281.333 45.502 C 281.333 45.194,278.548 42.667,278.209 42.667 C 278.114 42.667,278.000 42.573,277.955 42.458 C 277.911 42.343,277.587 42.145,277.235 42.017 C 276.884 41.890,276.503 41.693,276.389 41.580 C 276.276 41.466,275.898 41.321,275.550 41.256 C 275.202 41.192,274.692 41.039,274.417 40.916 C 273.163 40.358,269.300 40.173,266.542 40.538 M165.167 41.016 C 182.169 43.587,183.970 71.136,167.500 76.720 C 155.786 80.692,144.700 71.587,145.214 58.417 C 145.668 46.790,154.192 39.356,165.167 41.016 M272.917 41.025 C 278.848 41.999,282.980 46.678,284.093 53.679 C 284.404 55.635,284.366 60.583,284.034 61.375 L 283.842 61.833 273.171 61.833 L 262.500 61.833 262.503 62.208 C 262.510 63.327,263.672 66.069,264.638 67.249 C 267.517 70.764,273.399 71.353,278.701 68.657 L 279.986 68.004 280.603 69.127 C 280.942 69.745,281.620 70.960,282.110 71.828 C 283.190 73.743,283.188 73.691,282.208 74.268 C 269.131 81.964,255.136 75.936,253.480 61.893 C 252.763 55.810,254.463 50.103,258.290 45.750 C 261.637 41.943,267.324 40.106,272.917 41.025 M268.372 48.178 C 266.261 48.546,264.346 50.115,263.289 52.341 C 262.752 53.471,262.229 55.285,262.393 55.448 C 262.489 55.545,276.166 55.520,276.323 55.423 C 276.455 55.342,276.342 54.431,275.981 52.667 C 275.299 49.329,272.213 47.509,268.372 48.178 M160.833 48.477 C 156.819 49.341,154.917 52.778,154.917 59.167 C 154.917 66.438,157.233 69.909,162.083 69.903 C 166.179 69.898,168.730 66.927,169.342 61.449 C 170.249 53.316,166.302 47.299,160.833 48.477 M271.801 48.690 C 272.231 48.794,272.738 49.019,272.927 49.190 C 273.117 49.360,273.334 49.500,273.410 49.500 C 273.626 49.500,274.663 50.560,274.665 50.783 C 274.666 50.893,274.761 51.043,274.876 51.117 C 275.145 51.288,275.468 52.218,275.605 53.216 C 275.664 53.647,275.777 54.000,275.856 54.000 C 275.935 54.000,276.000 54.262,276.000 54.583 L 276.000 55.167 269.478 55.167 L 262.957 55.167 263.044 54.396 C 263.091 53.972,263.208 53.578,263.302 53.519 C 263.396 53.461,263.527 53.189,263.593 52.915 C 263.658 52.641,263.964 52.060,264.273 51.625 C 264.581 51.189,264.833 50.758,264.833 50.666 C 264.833 50.575,264.890 50.500,264.958 50.500 C 265.027 50.499,265.346 50.274,265.667 49.999 C 265.987 49.724,266.400 49.451,266.583 49.393 C 266.767 49.336,266.962 49.219,267.017 49.133 C 267.350 48.616,270.349 48.338,271.801 48.690 M163.965 49.145 C 163.998 49.243,164.282 49.371,164.597 49.430 C 165.158 49.535,167.167 51.275,167.167 51.655 C 167.167 51.745,167.354 52.095,167.583 52.433 C 167.813 52.770,168.000 53.153,168.000 53.282 C 168.000 53.412,168.142 53.833,168.316 54.217 C 169.093 55.936,169.115 62.320,168.351 64.074 C 168.189 64.446,167.957 65.069,167.835 65.458 C 167.713 65.848,167.555 66.167,167.485 66.167 C 167.414 66.167,167.303 66.335,167.239 66.542 C 167.045 67.162,165.224 68.785,164.588 68.905 C 164.278 68.963,163.994 69.101,163.957 69.211 C 163.828 69.599,160.870 69.474,159.960 69.042 C 159.526 68.835,159.098 68.667,159.010 68.667 C 158.922 68.667,158.790 68.573,158.717 68.458 C 158.643 68.344,158.438 68.170,158.261 68.072 C 158.084 67.974,157.859 67.751,157.761 67.575 C 157.663 67.399,157.452 67.156,157.292 67.035 C 157.131 66.914,157.000 66.712,157.000 66.586 C 157.000 66.460,156.906 66.255,156.792 66.130 C 156.433 65.740,156.194 65.230,156.076 64.604 C 156.014 64.272,155.905 64.000,155.835 64.000 C 155.189 64.000,155.196 54.756,155.843 54.528 C 155.929 54.497,156.000 54.369,156.000 54.242 C 156.000 53.840,156.523 52.453,156.766 52.210 C 156.895 52.081,157.000 51.873,157.000 51.748 C 157.000 51.622,157.131 51.420,157.292 51.299 C 157.452 51.177,157.663 50.934,157.761 50.759 C 157.859 50.583,158.084 50.359,158.261 50.261 C 158.438 50.163,158.643 49.990,158.717 49.875 C 158.790 49.760,158.922 49.667,159.010 49.667 C 159.098 49.667,159.488 49.523,159.877 49.348 C 160.265 49.173,160.696 48.987,160.833 48.934 C 161.248 48.774,163.901 48.953,163.965 49.145 M115.076 56.375 C 115.032 56.490,115.016 59.472,115.040 63.000 L 115.083 69.417 118.667 69.462 C 127.699 69.576,130.913 67.771,130.916 62.583 C 130.918 58.871,129.071 57.094,124.512 56.423 C 122.264 56.091,115.199 56.056,115.076 56.375 M122.417 56.667 C 122.473 56.758,122.909 56.833,123.385 56.833 C 124.403 56.833,127.167 57.313,127.167 57.491 C 127.167 57.558,127.471 57.714,127.844 57.837 C 128.216 57.960,128.593 58.197,128.683 58.363 C 128.772 58.530,128.957 58.667,129.093 58.667 C 129.230 58.667,129.408 58.843,129.490 59.057 C 129.572 59.272,129.744 59.554,129.873 59.682 C 130.673 60.484,130.687 64.908,129.890 65.383 C 129.767 65.457,129.667 65.619,129.667 65.745 C 129.667 66.007,128.521 67.333,128.294 67.333 C 128.211 67.333,128.040 67.436,127.914 67.562 C 127.788 67.688,127.343 67.892,126.926 68.015 C 126.508 68.139,126.167 68.290,126.167 68.352 C 126.167 68.641,123.705 68.870,119.708 68.953 L 115.333 69.045 115.333 62.772 L 115.333 56.500 118.823 56.500 C 120.970 56.500,122.353 56.564,122.417 56.667 " stroke="none" fill="#344fa8" fill-rule="evenodd"></path><path id="path1" d="M236.055 27.097 C 235.792 27.783,236.122 69.829,236.399 70.993 C 237.643 76.222,241.811 78.525,247.500 77.126 C 249.336 76.675,249.246 76.876,248.790 74.250 C 248.646 73.425,248.437 72.169,248.324 71.458 L 248.120 70.167 247.351 70.166 C 246.379 70.165,245.558 69.680,245.240 68.918 C 245.035 68.429,245.000 65.287,245.000 47.677 L 245.000 27.011 240.562 26.964 C 237.490 26.931,236.103 26.972,236.055 27.097 M105.833 30.542 C 105.833 30.565,105.832 40.933,105.831 53.583 L 105.829 76.583 113.956 76.633 C 128.795 76.724,133.645 75.545,137.348 70.949 C 142.739 64.258,139.810 54.563,131.699 52.248 C 131.140 52.088,131.318 51.829,132.429 51.185 C 139.120 47.306,139.355 36.713,132.833 32.952 C 131.024 31.909,127.624 30.975,124.524 30.670 C 123.090 30.529,105.834 30.410,105.833 30.542 M187.863 32.548 C 187.765 32.665,187.604 33.584,187.505 34.589 C 187.181 37.883,186.834 40.741,186.695 41.250 C 186.546 41.800,186.431 41.827,182.833 42.130 L 181.417 42.250 181.417 45.500 L 181.417 48.750 183.656 48.797 C 184.958 48.824,185.986 48.920,186.114 49.025 C 186.290 49.172,186.333 50.888,186.333 57.733 C 186.333 68.275,186.444 69.353,187.810 72.167 C 189.695 76.049,194.564 78.155,199.787 77.347 C 202.860 76.871,204.833 76.349,204.833 76.013 C 204.833 75.810,204.027 72.063,203.746 70.958 C 203.429 69.714,203.461 69.731,202.110 70.083 C 198.331 71.068,195.987 69.646,195.356 65.986 C 195.083 64.406,195.093 49.307,195.367 49.033 C 195.511 48.889,196.707 48.833,199.700 48.833 L 203.833 48.833 203.833 45.333 L 203.833 41.833 199.700 41.833 C 196.707 41.833,195.511 41.778,195.367 41.633 C 195.221 41.488,195.167 40.200,195.167 36.883 L 195.167 32.333 191.604 32.333 C 188.905 32.333,187.998 32.385,187.863 32.548 M212.717 32.466 C 212.595 32.543,212.416 33.608,212.261 35.171 C 211.926 38.551,211.514 41.555,211.367 41.690 C 211.303 41.749,210.200 41.889,208.917 42.000 C 207.633 42.111,206.488 42.230,206.371 42.264 C 206.207 42.312,206.170 43.051,206.205 45.538 L 206.250 48.750 208.583 48.833 L 210.917 48.917 211.019 57.667 C 211.151 68.971,211.354 70.382,213.254 73.246 C 215.466 76.578,220.038 78.117,225.167 77.256 C 227.912 76.795,229.667 76.330,229.667 76.062 C 229.667 76.025,229.471 75.114,229.233 74.039 C 228.994 72.963,228.706 71.614,228.592 71.040 C 228.328 69.708,228.375 69.738,227.046 70.060 C 223.076 71.023,220.744 69.661,220.186 66.051 C 219.917 64.317,219.930 49.303,220.200 49.033 C 220.345 48.889,221.541 48.833,224.533 48.833 L 228.667 48.833 228.667 45.333 L 228.667 41.833 224.533 41.833 C 221.541 41.833,220.345 41.778,220.200 41.633 C 220.054 41.488,220.000 40.200,220.000 36.883 L 220.000 32.333 216.458 32.336 C 214.510 32.337,212.827 32.396,212.717 32.466 M124.385 37.763 C 127.446 38.557,128.751 40.198,128.745 43.250 C 128.737 47.752,125.903 49.396,118.323 49.295 L 114.917 49.250 114.873 43.375 L 114.829 37.500 119.099 37.500 C 122.451 37.500,123.587 37.557,124.385 37.763 M160.308 40.914 C 160.263 40.959,159.594 41.112,158.822 41.254 C 142.737 44.215,140.436 69.840,155.685 76.178 C 165.783 80.375,176.994 73.832,178.496 62.866 C 179.987 51.973,174.640 43.159,165.376 41.238 C 163.607 40.871,160.546 40.676,160.308 40.914 M267.994 40.895 C 267.946 40.943,267.309 41.105,266.579 41.255 C 257.552 43.110,252.026 52.758,253.909 63.373 C 256.078 75.594,268.463 80.997,280.544 74.991 C 283.195 73.673,283.124 74.000,281.420 70.936 C 280.623 69.505,279.933 68.333,279.886 68.333 C 279.840 68.333,279.227 68.606,278.526 68.940 C 273.110 71.515,268.260 71.121,264.995 67.842 C 263.624 66.465,262.333 63.596,262.333 61.925 C 262.333 61.694,263.475 61.667,273.066 61.667 C 283.125 61.667,283.806 61.648,283.929 61.375 C 284.002 61.215,284.090 59.733,284.126 58.083 C 284.324 48.888,280.516 42.961,273.333 41.283 C 272.016 40.975,268.192 40.697,267.994 40.895 M272.833 48.447 C 275.151 49.530,276.669 52.264,276.471 55.000 L 276.417 55.750 269.370 55.793 C 261.314 55.843,261.957 55.990,262.426 54.207 C 263.781 49.063,268.529 46.435,272.833 48.447 M165.057 48.910 C 170.830 51.835,171.309 65.535,165.762 69.083 C 161.295 71.940,156.330 69.269,154.967 63.276 C 153.466 56.682,155.611 50.302,159.917 48.548 C 160.933 48.134,163.944 48.346,165.057 48.910 M124.500 56.176 C 129.070 56.909,131.159 58.912,131.165 62.565 C 131.173 67.684,127.994 69.583,119.417 69.583 L 114.917 69.583 114.873 63.000 C 114.849 59.380,114.865 56.323,114.909 56.209 C 115.011 55.943,122.878 55.916,124.500 56.176 " stroke="none" fill="#fbc314" fill-rule="evenodd"></path><path id="path2" d="M238.458 26.958 C 239.673 26.986,241.660 26.986,242.875 26.958 C 244.090 26.929,243.096 26.906,240.667 26.906 C 238.237 26.906,237.244 26.929,238.458 26.958 M105.748 53.500 C 105.748 66.013,105.767 71.131,105.792 64.875 C 105.816 58.619,105.816 48.381,105.792 42.125 C 105.767 35.869,105.748 40.987,105.748 53.500 M195.204 36.925 C 195.177 40.253,195.219 41.486,195.367 41.633 C 195.511 41.778,196.707 41.833,199.700 41.833 L 203.833 41.833 203.833 45.333 L 203.833 48.833 199.700 48.833 C 196.707 48.833,195.511 48.889,195.367 49.033 C 195.216 49.184,195.176 51.209,195.206 57.325 L 195.245 65.417 195.331 57.250 L 195.417 49.083 199.667 49.000 L 203.917 48.917 203.917 45.333 L 203.917 41.750 199.667 41.667 L 195.417 41.583 195.329 37.000 L 195.242 32.417 195.204 36.925 M220.073 37.000 C 220.073 39.521,220.096 40.552,220.125 39.292 C 220.153 38.031,220.153 35.969,220.125 34.708 C 220.096 33.448,220.073 34.479,220.073 37.000 M212.048 36.417 C 212.049 36.875,212.081 37.043,212.120 36.789 C 212.158 36.536,212.157 36.161,212.117 35.956 C 212.078 35.751,212.046 35.958,212.048 36.417 M187.205 36.667 C 187.205 36.987,187.240 37.119,187.282 36.958 C 187.323 36.798,187.323 36.535,187.282 36.375 C 187.240 36.215,187.205 36.346,187.205 36.667 M211.705 39.167 C 211.705 39.487,211.740 39.619,211.782 39.458 C 211.823 39.298,211.823 39.035,211.782 38.875 C 211.740 38.715,211.705 38.846,211.705 39.167 M186.879 39.500 C 186.879 39.912,186.911 40.081,186.951 39.875 C 186.991 39.669,186.991 39.331,186.951 39.125 C 186.911 38.919,186.879 39.087,186.879 39.500 M127.000 39.052 C 127.000 39.081,127.244 39.325,127.542 39.594 L 128.083 40.083 127.594 39.542 C 127.138 39.037,127.000 38.923,127.000 39.052 M222.375 41.791 C 223.544 41.820,225.456 41.820,226.625 41.791 C 227.794 41.763,226.838 41.739,224.500 41.739 C 222.162 41.739,221.206 41.763,222.375 41.791 M184.127 41.951 C 184.334 41.991,184.634 41.990,184.794 41.948 C 184.953 41.906,184.783 41.874,184.417 41.875 C 184.050 41.877,183.920 41.911,184.127 41.951 M208.960 41.951 C 209.168 41.991,209.468 41.990,209.627 41.948 C 209.786 41.906,209.617 41.874,209.250 41.875 C 208.883 41.877,208.753 41.911,208.960 41.951 M275.833 42.083 C 276.063 42.214,276.325 42.322,276.417 42.322 C 276.508 42.322,276.396 42.214,276.167 42.083 C 275.938 41.952,275.675 41.845,275.583 41.845 C 275.492 41.845,275.604 41.952,275.833 42.083 M182.128 42.121 C 182.428 42.158,182.878 42.157,183.128 42.119 C 183.378 42.081,183.133 42.051,182.583 42.052 C 182.033 42.053,181.828 42.084,182.128 42.121 M206.961 42.121 C 207.261 42.158,207.711 42.157,207.961 42.119 C 208.212 42.081,207.967 42.051,207.417 42.052 C 206.867 42.053,206.662 42.084,206.961 42.121 M228.737 45.333 C 228.737 47.212,228.761 47.981,228.791 47.042 C 228.821 46.102,228.821 44.565,228.791 43.625 C 228.761 42.685,228.737 43.454,228.737 45.333 M206.111 42.278 C 205.901 42.488,205.984 48.584,206.200 48.800 C 206.340 48.940,207.083 48.990,208.658 48.966 L 210.917 48.931 208.583 48.841 L 206.250 48.750 206.250 45.458 C 206.250 43.648,206.244 42.167,206.236 42.167 C 206.228 42.167,206.172 42.217,206.111 42.278 M172.917 45.000 C 173.275 45.367,173.605 45.667,173.651 45.667 C 173.697 45.667,173.441 45.367,173.083 45.000 C 172.725 44.633,172.395 44.333,172.349 44.333 C 172.303 44.333,172.559 44.633,172.917 45.000 M128.519 44.695 C 128.509 44.848,128.457 45.110,128.404 45.278 C 128.313 45.567,128.318 45.568,128.499 45.286 C 128.603 45.123,128.655 44.861,128.614 44.703 C 128.546 44.445,128.537 44.444,128.519 44.695 M150.991 45.125 L 150.417 45.750 151.042 45.176 C 151.623 44.641,151.743 44.500,151.616 44.500 C 151.588 44.500,151.307 44.781,150.991 45.125 M149.573 46.542 L 149.083 47.083 149.625 46.594 C 149.923 46.325,150.167 46.081,150.167 46.052 C 150.167 45.923,150.029 46.037,149.573 46.542 M268.708 47.948 C 268.869 47.990,269.131 47.990,269.292 47.948 C 269.452 47.906,269.321 47.872,269.000 47.872 C 268.679 47.872,268.548 47.906,268.708 47.948 M181.479 48.880 C 181.551 48.952,182.617 48.989,183.847 48.963 L 186.083 48.915 183.716 48.833 C 182.414 48.787,181.408 48.809,181.479 48.880 M222.375 48.958 C 223.544 48.987,225.456 48.987,226.625 48.958 C 227.794 48.929,226.838 48.906,224.500 48.906 C 222.162 48.906,221.206 48.929,222.375 48.958 M134.409 49.708 L 133.750 50.417 134.458 49.758 C 134.848 49.395,135.167 49.077,135.167 49.050 C 135.167 48.923,135.022 49.050,134.409 49.708 M186.244 57.583 C 186.244 62.258,186.265 64.195,186.292 61.887 C 186.318 59.578,186.318 55.753,186.292 53.387 C 186.265 51.020,186.244 52.908,186.244 57.583 M220.077 57.250 C 220.077 61.742,220.099 63.555,220.125 61.280 C 220.151 59.005,220.151 55.330,220.125 53.113 C 220.099 50.897,220.077 52.758,220.077 57.250 M264.740 49.875 L 264.250 50.417 264.792 49.927 C 265.297 49.471,265.410 49.333,265.281 49.333 C 265.252 49.333,265.009 49.577,264.740 49.875 M146.860 50.924 C 146.581 51.537,146.634 51.667,146.936 51.110 C 147.077 50.850,147.162 50.606,147.123 50.568 C 147.085 50.530,146.967 50.690,146.860 50.924 M146.095 53.095 C 146.034 53.339,146.016 53.571,146.055 53.611 C 146.094 53.650,146.177 53.482,146.238 53.238 C 146.299 52.994,146.317 52.762,146.278 52.723 C 146.239 52.683,146.157 52.851,146.095 53.095 M136.917 55.167 C 137.368 55.625,137.775 56.000,137.821 56.000 C 137.867 56.000,137.535 55.625,137.083 55.167 C 136.632 54.708,136.225 54.333,136.179 54.333 C 136.133 54.333,136.465 54.708,136.917 55.167 M262.234 55.333 L 262.250 55.750 269.250 55.753 L 276.250 55.755 269.303 55.709 L 262.355 55.663 262.286 55.290 C 262.227 54.968,262.220 54.974,262.234 55.333 M122.960 56.118 C 123.168 56.158,123.468 56.156,123.627 56.115 C 123.786 56.073,123.617 56.040,123.250 56.042 C 122.883 56.044,122.753 56.078,122.960 56.118 M284.228 57.667 C 284.228 58.629,284.256 59.023,284.290 58.542 C 284.323 58.060,284.323 57.273,284.290 56.792 C 284.256 56.310,284.228 56.704,284.228 57.667 M154.709 56.750 C 154.711 57.117,154.745 57.247,154.785 57.040 C 154.824 56.832,154.823 56.532,154.781 56.373 C 154.739 56.214,154.707 56.383,154.709 56.750 M145.387 57.833 C 145.387 58.429,145.417 58.673,145.454 58.375 C 145.491 58.077,145.491 57.590,145.454 57.292 C 145.417 56.994,145.387 57.237,145.387 57.833 M178.721 57.917 C 178.722 58.558,178.752 58.800,178.788 58.455 C 178.824 58.109,178.824 57.584,178.787 57.288 C 178.750 56.992,178.721 57.275,178.721 57.917 M169.564 59.333 C 169.564 60.479,169.591 60.948,169.623 60.375 C 169.656 59.802,169.656 58.865,169.623 58.292 C 169.591 57.719,169.564 58.188,169.564 59.333 M154.561 59.083 C 154.561 60.000,154.589 60.354,154.623 59.869 C 154.657 59.385,154.656 58.635,154.622 58.203 C 154.588 57.770,154.560 58.167,154.561 59.083 M178.724 60.583 C 178.724 61.317,178.754 61.596,178.789 61.204 C 178.824 60.812,178.824 60.212,178.788 59.871 C 178.752 59.529,178.723 59.850,178.724 60.583 M145.385 60.417 C 145.386 60.967,145.417 61.172,145.454 60.872 C 145.491 60.572,145.490 60.122,145.452 59.872 C 145.414 59.622,145.384 59.867,145.385 60.417 M253.539 61.333 C 253.539 61.654,253.573 61.785,253.615 61.625 C 253.657 61.465,253.657 61.202,253.615 61.042 C 253.573 60.881,253.539 61.012,253.539 61.333 M154.709 61.583 C 154.711 61.950,154.745 62.080,154.785 61.873 C 154.824 61.666,154.823 61.366,154.781 61.206 C 154.739 61.047,154.707 61.217,154.709 61.583 M131.042 61.750 C 131.044 62.117,131.078 62.247,131.118 62.040 C 131.158 61.832,131.156 61.532,131.115 61.373 C 131.073 61.214,131.040 61.383,131.042 61.750 M131.039 63.500 C 131.039 63.821,131.073 63.952,131.115 63.792 C 131.157 63.631,131.157 63.369,131.115 63.208 C 131.073 63.048,131.039 63.179,131.039 63.500 M211.048 65.583 C 211.049 66.042,211.081 66.209,211.120 65.956 C 211.158 65.703,211.157 65.328,211.117 65.123 C 211.078 64.918,211.046 65.125,211.048 65.583 M146.678 66.917 C 146.678 67.008,146.786 67.271,146.917 67.500 C 147.048 67.729,147.155 67.842,147.155 67.750 C 147.155 67.658,147.048 67.396,146.917 67.167 C 146.786 66.938,146.678 66.825,146.678 66.917 M186.372 67.333 C 186.372 67.654,186.406 67.785,186.448 67.625 C 186.490 67.465,186.490 67.202,186.448 67.042 C 186.406 66.881,186.372 67.012,186.372 67.333 M211.209 67.417 C 211.211 67.783,211.245 67.914,211.285 67.706 C 211.324 67.499,211.323 67.199,211.281 67.040 C 211.239 66.880,211.207 67.050,211.209 67.417 M264.917 67.833 C 265.275 68.200,265.605 68.500,265.651 68.500 C 265.697 68.500,265.441 68.200,265.083 67.833 C 264.725 67.467,264.395 67.167,264.349 67.167 C 264.303 67.167,264.559 67.467,264.917 67.833 M166.573 68.375 L 166.083 68.917 166.625 68.427 C 166.923 68.158,167.167 67.914,167.167 67.885 C 167.167 67.757,167.029 67.870,166.573 68.375 M236.052 68.917 C 236.053 69.467,236.084 69.672,236.121 69.372 C 236.158 69.072,236.157 68.622,236.119 68.372 C 236.081 68.122,236.051 68.367,236.052 68.917 M114.978 69.545 C 115.048 69.615,116.938 69.653,119.178 69.628 L 123.250 69.583 119.050 69.500 C 116.740 69.454,114.907 69.474,114.978 69.545 M123.708 69.448 C 123.869 69.490,124.131 69.490,124.292 69.448 C 124.452 69.406,124.321 69.372,124.000 69.372 C 123.679 69.372,123.548 69.406,123.708 69.448 M203.198 69.770 C 203.353 69.816,203.517 69.980,203.564 70.135 C 203.624 70.339,203.638 70.326,203.614 70.085 C 203.594 69.891,203.442 69.740,203.248 69.720 C 203.008 69.695,202.994 69.709,203.198 69.770 M161.455 70.120 C 161.750 70.157,162.275 70.158,162.621 70.122 C 162.967 70.086,162.725 70.055,162.083 70.055 C 161.442 70.054,161.159 70.083,161.455 70.120 M198.333 70.164 C 198.471 70.254,198.765 70.329,198.986 70.331 C 199.521 70.334,199.385 70.239,198.667 70.108 C 198.256 70.032,198.157 70.049,198.333 70.164 M246.875 70.119 C 247.127 70.158,247.540 70.158,247.792 70.119 C 248.044 70.081,247.838 70.050,247.333 70.050 C 246.829 70.050,246.623 70.081,246.875 70.119 M273.542 70.448 C 273.702 70.490,273.965 70.490,274.125 70.448 C 274.285 70.406,274.154 70.372,273.833 70.372 C 273.512 70.372,273.381 70.406,273.542 70.448 M271.208 70.621 C 271.552 70.657,272.115 70.657,272.458 70.621 C 272.802 70.585,272.521 70.556,271.833 70.556 C 271.146 70.556,270.865 70.585,271.208 70.621 M136.575 71.875 L 135.917 72.583 136.625 71.925 C 137.015 71.562,137.333 71.243,137.333 71.216 C 137.333 71.090,137.188 71.216,136.575 71.875 M228.690 71.667 C 228.690 71.804,228.755 72.067,228.833 72.250 C 228.924 72.460,228.977 72.491,228.977 72.333 C 228.977 72.196,228.912 71.933,228.833 71.750 C 228.743 71.540,228.690 71.509,228.690 71.667 M258.333 72.583 C 258.924 73.179,259.445 73.667,259.490 73.667 C 259.536 73.667,259.091 73.179,258.500 72.583 C 257.909 71.987,257.389 71.500,257.343 71.500 C 257.297 71.500,257.743 71.987,258.333 72.583 M214.167 74.583 C 214.478 74.904,214.770 75.167,214.815 75.167 C 214.861 75.167,214.644 74.904,214.333 74.583 C 214.022 74.262,213.730 74.000,213.685 74.000 C 213.639 74.000,213.856 74.262,214.167 74.583 M189.000 74.219 C 189.000 74.248,189.244 74.491,189.542 74.760 L 190.083 75.250 189.594 74.708 C 189.138 74.203,189.000 74.090,189.000 74.219 M237.791 74.583 C 237.981 74.858,238.385 75.308,238.688 75.583 C 239.096 75.953,239.050 75.866,238.511 75.250 C 237.527 74.126,237.383 73.993,237.791 74.583 M129.917 75.500 C 129.707 75.590,129.676 75.643,129.833 75.643 C 129.971 75.643,130.233 75.579,130.417 75.500 C 130.627 75.410,130.658 75.357,130.500 75.357 C 130.362 75.357,130.100 75.421,129.917 75.500 M204.846 75.850 C 204.839 75.996,204.665 76.197,204.458 76.297 C 204.252 76.396,204.163 76.483,204.260 76.489 C 204.581 76.509,205.047 76.058,204.953 75.819 C 204.879 75.633,204.857 75.640,204.846 75.850 M229.667 75.947 C 229.667 76.040,229.498 76.197,229.292 76.297 C 229.085 76.396,228.996 76.483,229.093 76.489 C 229.373 76.507,229.929 76.040,229.791 75.903 C 229.723 75.834,229.667 75.854,229.667 75.947 M125.125 76.451 C 125.331 76.491,125.669 76.491,125.875 76.451 C 126.081 76.411,125.912 76.379,125.500 76.379 C 125.087 76.379,124.919 76.411,125.125 76.451 M123.458 76.618 C 123.665 76.657,124.002 76.657,124.208 76.618 C 124.415 76.578,124.246 76.545,123.833 76.545 C 123.421 76.545,123.252 76.578,123.458 76.618 M158.583 77.167 C 158.767 77.245,159.067 77.308,159.250 77.305 C 159.518 77.301,159.502 77.274,159.167 77.167 C 158.597 76.984,158.159 76.984,158.583 77.167 M194.000 77.159 C 194.137 77.252,194.394 77.329,194.569 77.331 C 194.996 77.334,194.863 77.239,194.250 77.102 C 193.885 77.020,193.817 77.036,194.000 77.159 M218.833 77.159 C 218.971 77.252,219.227 77.329,219.403 77.331 C 219.829 77.334,219.696 77.239,219.083 77.102 C 218.718 77.020,218.651 77.036,218.833 77.159 M241.500 77.159 C 241.637 77.252,241.894 77.329,242.069 77.331 C 242.496 77.334,242.363 77.239,241.750 77.102 C 241.385 77.020,241.317 77.036,241.500 77.159 M247.333 77.167 C 246.998 77.274,246.982 77.301,247.250 77.305 C 247.433 77.308,247.733 77.245,247.917 77.167 C 248.341 76.984,247.903 76.984,247.333 77.167 M273.917 77.167 C 273.468 77.281,273.459 77.294,273.833 77.297 C 274.063 77.299,274.438 77.240,274.667 77.167 C 275.227 76.987,274.622 76.987,273.917 77.167 M200.542 77.282 C 200.702 77.323,200.965 77.323,201.125 77.282 C 201.285 77.240,201.154 77.205,200.833 77.205 C 200.512 77.205,200.381 77.240,200.542 77.282 M225.375 77.282 C 225.535 77.323,225.798 77.323,225.958 77.282 C 226.119 77.240,225.987 77.205,225.667 77.205 C 225.346 77.205,225.215 77.240,225.375 77.282 " stroke="none" fill="#a89453" fill-rule="evenodd"></path><path id="path3" d="M235.942 26.792 C 235.900 26.860,237.226 26.897,238.891 26.874 C 244.540 26.794,245.096 26.737,240.552 26.702 C 238.059 26.682,235.985 26.723,235.942 26.792 M245.081 47.500 C 245.081 58.821,245.101 63.452,245.125 57.792 C 245.149 52.131,245.149 42.869,245.125 37.208 C 245.101 31.548,245.081 36.179,245.081 47.500 M235.914 47.917 C 235.914 59.283,235.934 63.909,235.958 58.195 C 235.983 52.482,235.983 43.182,235.958 37.529 C 235.934 31.875,235.914 36.550,235.914 47.917 M123.294 30.451 C 123.501 30.491,123.801 30.490,123.960 30.448 C 124.120 30.406,123.950 30.374,123.583 30.375 C 123.217 30.377,123.086 30.411,123.294 30.451 M189.884 32.291 C 190.874 32.321,192.449 32.321,193.384 32.291 C 194.319 32.261,193.508 32.237,191.583 32.237 C 189.658 32.237,188.894 32.262,189.884 32.291 M214.542 32.291 C 215.527 32.321,217.140 32.321,218.125 32.291 C 219.110 32.262,218.304 32.237,216.333 32.237 C 214.362 32.237,213.556 32.262,214.542 32.291 M195.406 37.000 C 195.406 39.521,195.430 40.552,195.458 39.292 C 195.486 38.031,195.486 35.969,195.458 34.708 C 195.430 33.448,195.406 34.479,195.406 37.000 M212.205 34.167 C 212.205 34.487,212.240 34.619,212.282 34.458 C 212.323 34.298,212.323 34.035,212.282 33.875 C 212.240 33.715,212.205 33.846,212.205 34.167 M187.039 37.000 C 187.039 37.321,187.073 37.452,187.115 37.292 C 187.157 37.131,187.157 36.869,187.115 36.708 C 187.073 36.548,187.039 36.679,187.039 37.000 M122.042 37.615 C 122.202 37.657,122.465 37.657,122.625 37.615 C 122.785 37.573,122.654 37.539,122.333 37.539 C 122.013 37.539,121.881 37.573,122.042 37.615 M114.908 43.417 C 114.908 46.533,114.931 47.785,114.958 46.198 C 114.986 44.611,114.985 42.061,114.958 40.531 C 114.931 39.001,114.908 40.300,114.908 43.417 M269.542 40.782 C 269.702 40.823,269.965 40.823,270.125 40.782 C 270.285 40.740,270.154 40.705,269.833 40.705 C 269.512 40.705,269.381 40.740,269.542 40.782 M137.714 41.917 C 137.716 42.375,137.748 42.543,137.786 42.289 C 137.825 42.036,137.824 41.661,137.784 41.456 C 137.744 41.251,137.713 41.458,137.714 41.917 M184.708 41.782 C 184.869 41.823,185.131 41.823,185.292 41.782 C 185.452 41.740,185.321 41.705,185.000 41.705 C 184.679 41.705,184.548 41.740,184.708 41.782 M209.542 41.782 C 209.702 41.823,209.965 41.823,210.125 41.782 C 210.285 41.740,210.154 41.705,209.833 41.705 C 209.512 41.705,209.381 41.740,209.542 41.782 M182.794 41.951 C 183.001 41.991,183.301 41.990,183.460 41.948 C 183.620 41.906,183.450 41.874,183.083 41.875 C 182.717 41.877,182.586 41.911,182.794 41.951 M207.542 41.948 C 207.702 41.990,207.965 41.990,208.125 41.948 C 208.285 41.906,208.154 41.872,207.833 41.872 C 207.512 41.872,207.381 41.906,207.542 41.948 M150.411 45.542 L 149.417 46.583 150.458 45.589 C 151.031 45.041,151.500 44.573,151.500 44.547 C 151.500 44.424,151.336 44.574,150.411 45.542 M186.077 57.417 C 186.077 62.092,186.099 64.028,186.125 61.720 C 186.151 59.412,186.151 55.587,186.125 53.220 C 186.099 50.853,186.077 52.742,186.077 57.417 M195.411 57.333 C 195.411 61.871,195.432 63.727,195.458 61.458 C 195.484 59.190,195.484 55.477,195.458 53.208 C 195.432 50.940,195.411 52.796,195.411 57.333 M210.911 57.500 C 210.911 62.129,210.932 64.023,210.958 61.708 C 210.984 59.394,210.984 55.606,210.958 53.292 C 210.932 50.977,210.911 52.871,210.911 57.500 M264.740 50.042 L 264.250 50.583 264.792 50.094 C 265.090 49.825,265.333 49.581,265.333 49.552 C 265.333 49.423,265.196 49.537,264.740 50.042 M284.205 55.167 C 284.205 55.487,284.240 55.619,284.282 55.458 C 284.323 55.298,284.323 55.035,284.282 54.875 C 284.240 54.715,284.205 54.846,284.205 55.167 M266.031 55.625 C 267.835 55.652,270.835 55.652,272.697 55.625 C 274.560 55.598,273.083 55.576,269.417 55.576 C 265.750 55.576,264.226 55.598,266.031 55.625 M114.909 62.833 C 114.909 66.362,114.931 67.806,114.958 66.042 C 114.985 64.277,114.985 61.390,114.958 59.625 C 114.931 57.860,114.909 59.304,114.909 62.833 M253.375 57.417 C 253.377 57.783,253.411 57.914,253.451 57.706 C 253.491 57.499,253.490 57.199,253.448 57.040 C 253.406 56.880,253.374 57.050,253.375 57.417 M145.231 59.083 C 145.232 60.275,145.258 60.741,145.290 60.118 C 145.323 59.496,145.322 58.521,145.290 57.951 C 145.257 57.382,145.231 57.892,145.231 59.083 M154.728 59.083 C 154.728 60.000,154.756 60.354,154.790 59.869 C 154.824 59.385,154.823 58.635,154.789 58.203 C 154.755 57.770,154.727 58.167,154.728 59.083 M178.881 58.250 C 178.882 58.708,178.915 58.876,178.953 58.623 C 178.991 58.369,178.990 57.994,178.951 57.789 C 178.911 57.584,178.880 57.792,178.881 58.250 M178.888 60.250 C 178.889 60.892,178.919 61.134,178.955 60.788 C 178.991 60.442,178.990 59.917,178.954 59.621 C 178.917 59.325,178.887 59.608,178.888 60.250 M253.375 60.750 C 253.377 61.117,253.411 61.247,253.451 61.040 C 253.491 60.832,253.490 60.532,253.448 60.373 C 253.406 60.214,253.374 60.383,253.375 60.750 M267.970 61.792 C 270.933 61.817,275.733 61.817,278.637 61.792 C 281.541 61.766,279.117 61.745,273.250 61.745 C 267.383 61.745,265.008 61.766,267.970 61.792 M186.209 66.917 C 186.211 67.283,186.245 67.414,186.285 67.206 C 186.324 66.999,186.323 66.699,186.281 66.540 C 186.239 66.380,186.207 66.550,186.209 66.917 M271.208 70.455 C 271.552 70.491,272.115 70.491,272.458 70.455 C 272.802 70.419,272.521 70.389,271.833 70.389 C 271.146 70.389,270.865 70.419,271.208 70.455 M161.214 77.623 C 161.745 77.657,162.570 77.656,163.048 77.623 C 163.526 77.589,163.092 77.562,162.083 77.562 C 161.075 77.563,160.684 77.590,161.214 77.623 M197.294 77.618 C 197.501 77.658,197.801 77.656,197.960 77.615 C 198.120 77.573,197.950 77.540,197.583 77.542 C 197.217 77.544,197.086 77.578,197.294 77.618 M221.958 77.618 C 222.165 77.657,222.502 77.657,222.708 77.618 C 222.915 77.578,222.746 77.545,222.333 77.545 C 221.921 77.545,221.752 77.578,221.958 77.618 M243.875 77.623 C 244.310 77.657,245.023 77.657,245.458 77.623 C 245.894 77.588,245.537 77.560,244.667 77.560 C 243.796 77.560,243.440 77.588,243.875 77.623 M269.547 77.623 C 269.985 77.657,270.660 77.657,271.047 77.622 C 271.434 77.587,271.075 77.559,270.250 77.559 C 269.425 77.560,269.109 77.588,269.547 77.623 " stroke="none" fill="#847f6c" fill-rule="evenodd"></path><path id="path4" d="M110.137 30.458 C 112.549 30.484,116.449 30.484,118.803 30.458 C 121.157 30.432,119.183 30.411,114.417 30.411 C 109.650 30.411,107.724 30.432,110.137 30.458 M181.236 45.500 C 181.236 47.288,181.261 48.019,181.291 47.125 C 181.321 46.231,181.321 44.769,181.291 43.875 C 181.261 42.981,181.236 43.712,181.236 45.500 M116.708 49.291 C 117.602 49.321,119.065 49.321,119.958 49.291 C 120.852 49.261,120.121 49.236,118.333 49.236 C 116.546 49.236,115.815 49.261,116.708 49.291 M274.000 49.219 C 274.000 49.248,274.244 49.491,274.542 49.760 L 275.083 50.250 274.594 49.708 C 274.138 49.203,274.000 49.090,274.000 49.219 M117.125 56.124 C 118.156 56.154,119.844 56.154,120.875 56.124 C 121.906 56.095,121.063 56.071,119.000 56.071 C 116.938 56.071,116.094 56.095,117.125 56.124 " stroke="none" fill="#8c846c" fill-rule="evenodd"></path></g></svg>